HIERARCHY
ROOT Hips
{
	OFFSET 0.000000 0.000000 0.000000
	CHANNELS 6 Xposition Yposition Zposition Xrotation Yrotation Zrotation
	JOINT LeftUpLeg_virtual
	{
		OFFSET 0.000000 0.000000 0.000000
		CHANNELS 3 Xrotation Yrotation Zrotation
		JOINT LeftUpLeg
		{
			OFFSET 10.205400 -3.823500 0.155100
			CHANNELS 3 Xrotation Yrotation Zrotation
			JOINT LeftLeg
			{
				OFFSET 0.708757 -12.982077 0.567790
				CHANNELS 3 Xrotation Yrotation Zrotation
				JOINT LeftFoot
				{
					OFFSET -0.708756 -10.717838 -2.184338
					CHANNELS 3 Xrotation Yrotation Zrotation
					JOINT LeftToeBase
					{
						OFFSET 0.108149 -7.191104 7.560241
						CHANNELS 3 Xrotation Yrotation Zrotation
						JOINT LeftToe_End
						{
							OFFSET 0.070230 0.081724 4.490308
							CHANNELS 3 Xrotation Yrotation Zrotation
							End Site
							{
								OFFSET 0 0 0
							}
						}
					}
				}
			}
		}
	}
	JOINT RightUpLeg_virtual
	{
		OFFSET 0.000000 0.000000 0.000000
		CHANNELS 3 Xrotation Yrotation Zrotation
		JOINT RightUpLeg
		{
			OFFSET -10.205400 -3.823500 0.005500
			CHANNELS 3 Xrotation Yrotation Zrotation
			JOINT RightLeg
			{
				OFFSET -0.708756 -12.982134 0.610632
				CHANNELS 3 Xrotation Yrotation Zrotation
				JOINT RightFoot
				{
					OFFSET 0.708754 -10.717769 -1.945823
					CHANNELS 3 Xrotation Yrotation Zrotation
					JOINT RightToeBase
					{
						OFFSET -0.108140 -7.191069 7.372968
						CHANNELS 3 Xrotation Yrotation Zrotation
						JOINT RightToe_End
						{
							OFFSET -0.070227 0.081735 4.479403
							CHANNELS 3 Xrotation Yrotation Zrotation
							End Site
							{
								OFFSET 0 0 0
							}
						}
					}
				}
			}
		}
	}
	JOINT Spine_virtual
	{
		OFFSET 0.000000 0.000000 0.000000
		CHANNELS 3 Xrotation Yrotation Zrotation
		JOINT Spine
		{
			OFFSET 0.000000 6.876099 0.125700
			CHANNELS 3 Xrotation Yrotation Zrotation
			JOINT Spine1
			{
				OFFSET 0.000000 5.730043 0.104720
				CHANNELS 3 Xrotation Yrotation Zrotation
				JOINT Spine1_split
				{
					OFFSET 0.000000 5.730043 0.104720
					CHANNELS 3 Xrotation Yrotation Zrotation
					JOINT Spine2
					{
						OFFSET 0.000000 5.730043 0.104720
						CHANNELS 3 Xrotation Yrotation Zrotation
						JOINT Neck_virtual
						{
							OFFSET 0.000000 0.000000 0.000000
							CHANNELS 3 Xrotation Yrotation Zrotation
							JOINT Neck
							{
								OFFSET 0.000000 10.314075 0.188496
								CHANNELS 3 Xrotation Yrotation Zrotation
								JOINT Head
								{
									OFFSET 0.000000 7.643700 -2.377400
									CHANNELS 3 Xrotation Yrotation Zrotation
									JOINT HeadTop_End
									{
										OFFSET 0.000000 43.788605 -13.619600
										CHANNELS 3 Xrotation Yrotation Zrotation
										End Site
										{
											OFFSET 0 0 0
										}
									}
								}
							}
						}
						JOINT LeftShoulder_virtual
						{
							OFFSET 0.000000 0.000000 0.000000
							CHANNELS 3 Xrotation Yrotation Zrotation
							JOINT LeftShoulder
							{
								OFFSET 2.196100 4.412489 0.087492
								CHANNELS 3 Xrotation Yrotation Zrotation
								JOINT LeftShoulder_split
								{
									OFFSET 2.196100 4.412489 0.087492
									CHANNELS 3 Xrotation Yrotation Zrotation
									JOINT LeftArm
									{
										OFFSET 8.771219 -2.981674 -0.026999
										CHANNELS 3 Xrotation Yrotation Zrotation
										JOINT LeftForeArm
										{
											OFFSET 8.512804 0.000000 -0.000000
											CHANNELS 3 Xrotation Yrotation Zrotation
											JOINT LeftHand
											{
												OFFSET 18.484802 0.000000 -0.000000
												CHANNELS 3 Xrotation Yrotation Zrotation
												End Site
												{
													OFFSET 0 0 0
												}
											}
										}
									}
								}
							}
						}
						JOINT RightShoulder_virtual
						{
							OFFSET 0.000000 0.000000 0.000000
							CHANNELS 3 Xrotation Yrotation Zrotation
							JOINT RightShoulder
							{
								OFFSET -2.196100 4.412496 0.070690
								CHANNELS 3 Xrotation Yrotation Zrotation
								JOINT RightShoulder_split
								{
									OFFSET -2.196100 4.412496 0.070690
									CHANNELS 3 Xrotation Yrotation Zrotation
									JOINT RightArm
									{
										OFFSET -8.771282 -2.981682 -0.094208
										CHANNELS 3 Xrotation Yrotation Zrotation
										JOINT RightForeArm
										{
											OFFSET -8.494598 0.000000 0.000000
											CHANNELS 3 Xrotation Yrotation Zrotation
											JOINT RightHand
											{
												OFFSET -18.483803 0.000000 0.000001
												CHANNELS 3 Xrotation Yrotation Zrotation
												End Site
												{
													OFFSET 0 0 0
												}
											}
										}
									}
								}
							}
						}
					}
				}
			}
		}
	}
}
MOTION
Frames: 11
Frame Time: 0.03333333
22.287388 32.769753 63.847847 0.000000 0.000000 0.000000 -11.851638 50.230598 13.149088 -19.263510 1.958369 -18.966628 31.750360 9.266741 1.274247 16.547506 -3.447837 20.890880 -29.048091 2.235094 3.042888 0.000000 0.000000 0.000000 -8.986669 50.722648 11.421870 -18.679545 14.448049 -4.235352 42.851343 4.158422 5.772958 14.045172 -17.328914 6.010070 -32.104806 15.682461 -0.819317 0.000000 0.000000 0.000000 -13.562990 52.846243 13.621290 5.688628 -4.923060 -3.001634 -1.079359 -1.397564 1.166490 0.022358 0.181236 -0.024705 0.000000 0.000000 0.000000 0.039404 1.632304 2.095115 -11.565660 6.219539 7.190682 -7.880224 -12.537183 -28.726700 0.000000 0.000000 0.000000 -2.578631 0.330046 1.281789 1.207828 -1.558108 -5.580863 0.293085 -0.888512 -2.823169 13.038148 6.857790 -62.408989 20.131926 -38.203867 7.572761 0.000000 0.000000 0.000000 -1.018200 -0.181249 1.930682 0.761381 1.985128 0.299703 -17.122185 -3.177197 1.809446 13.904973 3.168574 62.493834 -0.522176 19.978414 13.275379 0.000000 0.000000 0.000000 
22.939125 33.193279 65.005043 0.000000 0.000000 0.000000 -12.517065 53.767645 13.541506 -14.901577 -0.797147 -20.331431 30.544039 9.648426 2.002285 12.563475 -2.541439 22.182450 -28.504719 2.435543 1.668348 0.000000 0.000000 0.000000 -9.133686 53.224509 11.313081 -24.828878 15.374399 -4.539947 38.597498 2.435350 5.988008 16.202925 -17.289278 3.136331 -24.230996 15.685436 -1.785507 0.000000 0.000000 0.000000 -14.451552 55.504419 14.258950 6.536447 -5.639615 -2.768148 -1.497944 -1.755827 1.356088 0.051943 0.132337 -0.052395 0.000000 0.000000 0.000000 -0.005737 1.247743 2.304063 -11.880843 6.086240 7.282171 -9.274855 -11.313016 -28.394806 0.000000 0.000000 0.000000 -2.773556 -0.116601 1.380637 1.234294 -2.268798 -5.386291 0.069384 0.475071 -2.688483 11.705233 3.712603 -61.353854 20.070726 -37.592637 7.922024 0.000000 0.000000 0.000000 -1.330918 -0.569814 2.190528 0.650981 1.356831 1.337548 -17.528965 -3.350098 0.988857 14.344408 1.656296 63.526763 0.327983 19.583730 12.369809 0.000000 0.000000 0.000000 
23.638876 33.636021 66.071831 0.000000 0.000000 0.000000 -12.589394 57.112696 13.725068 -10.473901 -2.350806 -20.796318 28.170070 9.561801 2.327792 8.333171 -2.820258 23.885923 -26.985562 2.584826 0.440222 0.000000 0.000000 0.000000 -9.209602 56.156402 11.322694 -28.862078 14.960122 -5.176341 32.098638 1.354745 5.514001 19.384948 -16.317098 2.396500 -17.138536 15.907593 -4.264148 0.000000 0.000000 0.000000 -15.474745 58.303792 15.140465 7.050491 -6.305500 -2.846131 -1.825569 -2.092585 1.539905 0.104720 0.063183 -0.071176 0.000000 0.000000 0.000000 -0.132355 0.911169 2.479898 -11.712716 5.895021 7.635768 -9.933573 -10.544783 -27.785624 0.000000 0.000000 0.000000 -2.899262 -0.519963 1.469852 1.271897 -2.918731 -5.236454 -0.211678 1.541326 -2.445120 10.101997 0.667792 -60.352153 19.988053 -36.999381 8.178685 0.000000 0.000000 0.000000 -1.513019 -0.904662 2.401849 0.604991 0.747211 2.825464 -17.962655 -3.485693 0.230584 14.841936 -0.082955 64.097022 1.018887 19.537063 11.714702 0.000000 0.000000 0.000000 
24.385395 34.042915 67.019821 0.000000 0.000000 0.000000 -12.237242 60.241005 13.799898 -6.629463 -3.249168 -20.126143 25.378297 7.969015 2.227700 6.470972 -4.500521 24.067510 -27.070738 2.499762 -0.080445 0.000000 0.000000 0.000000 -9.611393 59.742872 11.769357 -30.928039 13.330348 -6.048692 24.526581 0.882193 4.638836 23.158767 -14.531444 3.609693 -11.311386 16.152127 -8.160805 0.000000 0.000000 0.000000 -16.331882 61.325762 16.120922 7.238568 -6.937520 -3.279230 -2.018964 -2.411815 1.756758 0.133158 -0.002053 -0.062645 0.000000 0.000000 0.000000 -0.286844 0.651477 2.647848 -11.100626 5.667374 8.289992 -9.977618 -10.025331 -26.825086 0.000000 0.000000 0.000000 -2.982874 -0.850459 1.606656 1.295178 -3.518053 -5.054644 -0.438520 2.207689 -2.176355 8.318466 -1.915402 -59.446176 20.008851 -37.055146 8.429119 0.000000 0.000000 0.000000 -1.608067 -1.185427 2.616510 0.656652 0.089936 4.599094 -18.356731 -3.537127 -0.320460 15.472040 -1.954416 64.012280 1.461730 19.842227 11.361259 0.000000 0.000000 0.000000 
25.110453 34.364639 67.926964 0.000000 0.000000 0.000000 -11.519484 63.062795 13.615450 -3.372762 -3.785984 -18.611147 23.105603 5.425721 1.438297 7.577531 -6.819386 23.780647 -29.452626 2.249449 -0.431183 0.000000 0.000000 0.000000 -10.362930 63.683994 12.564616 -31.593890 10.733927 -7.111826 17.374555 0.869131 3.681594 27.306856 -11.919513 6.776907 -7.538611 16.424500 -12.970639 0.000000 0.000000 0.000000 -16.893886 64.339890 17.033440 7.141434 -7.532683 -3.958948 -2.075938 -2.706542 2.055113 0.125863 -0.049899 -0.042062 0.000000 0.000000 0.000000 -0.423468 0.453095 2.828944 -10.224080 5.461509 9.146400 -9.617262 -9.684125 -25.566662 0.000000 0.000000 0.000000 -3.039976 -1.114076 1.826656 1.302412 -4.088496 -4.778852 -0.470482 2.371995 -1.914472 6.596819 -3.798329 -58.609006 20.214418 -38.000386 8.745660 0.000000 0.000000 0.000000 -1.636659 -1.428515 2.881466 0.807080 -0.637279 6.488681 -18.602864 -3.370435 -0.743961 16.174218 -3.769576 63.268677 1.639401 20.452877 11.282770 0.000000 0.000000 0.000000 
25.836926 34.551525 68.910080 0.000000 0.000000 0.000000 -10.732600 65.708100 13.297607 -0.767830 -3.998711 -16.353937 21.749554 2.593205 0.169967 10.681967 -9.178357 23.683450 -33.942222 2.126644 -1.080754 0.000000 0.000000 0.000000 -11.200574 67.286707 13.453410 -31.646920 7.666505 -8.154359 11.583796 0.951945 2.813222 30.844608 -9.017755 11.040348 -5.439555 16.719811 -17.978516 0.000000 0.000000 0.000000 -17.070490 67.006164 17.692657 6.843991 -8.067348 -4.730725 -2.006167 -2.982471 2.443810 0.138306 -0.082442 -0.032781 0.000000 0.000000 0.000000 -0.507694 0.302369 3.054217 -9.223921 5.344644 10.071656 -9.242803 -9.456663 -24.197658 0.000000 0.000000 0.000000 -3.110983 -1.333576 2.138220 1.304904 -4.623696 -4.401090 -0.520372 2.082305 -1.816906 5.095795 -4.789535 -57.956313 20.475857 -39.416947 9.030681 0.000000 0.000000 0.000000 -1.659481 -1.666530 3.221320 1.078033 -1.365496 8.306220 -18.688799 -3.214156 -0.912021 16.838894 -5.363903 62.052084 1.588483 21.331876 11.379143 0.000000 0.000000 0.000000 
26.570095 34.568336 70.021378 0.000000 0.000000 0.000000 -10.468384 68.210736 13.315011 1.422123 -3.907321 -13.739927 21.229990 0.261364 -1.016399 13.453267 -11.060481 23.621262 -39.301376 2.423675 -2.263336 0.000000 0.000000 0.000000 -11.936129 70.074367 14.190770 -31.630312 4.774329 -8.915704 7.687614 0.663732 2.030257 32.859835 -7.009137 14.639110 -3.351584 16.863308 -22.642890 0.000000 0.000000 0.000000 -17.297259 69.169080 18.330445 6.450257 -8.572020 -5.440930 -1.899182 -3.210855 2.884786 0.125111 -0.074329 -0.048571 0.000000 0.000000 0.000000 -0.509469 0.147551 3.343610 -8.208571 5.356162 10.828146 -8.993980 -9.469156 -22.919388 0.000000 0.000000 0.000000 -3.220813 -1.530334 2.511856 1.333654 -4.960661 -3.950102 -0.631148 1.449172 -1.924733 3.914080 -4.936797 -57.588719 20.753600 -40.914565 9.294118 0.000000 0.000000 0.000000 -1.737596 -1.914483 3.630094 1.405496 -2.003572 9.871853 -18.607582 -3.098446 -0.820309 17.302575 -6.529429 60.653077 1.378552 22.381314 11.512007 0.000000 0.000000 0.000000 
27.293211 34.425789 71.260391 0.000000 0.000000 0.000000 -10.666971 70.184606 13.588360 4.272960 -3.533743 -11.495272 20.964656 -0.496525 -1.974883 12.854626 -11.969643 24.488484 -43.747372 3.267023 -4.009619 0.000000 0.000000 0.000000 -12.198627 71.808825 14.492984 -31.972775 2.709503 -9.352429 6.231200 -0.164507 1.364706 33.406756 -6.419275 16.844025 -0.793551 16.756081 -26.419704 0.000000 0.000000 0.000000 -17.550659 70.527659 18.814425 5.906122 -9.025502 -5.974981 -1.842470 -3.388945 3.300388 0.113003 -0.053003 -0.067157 0.000000 0.000000 0.000000 -0.484924 -0.027499 3.666635 -7.309677 5.486081 11.193340 -8.947806 -10.020069 -21.898761 0.000000 0.000000 0.000000 -3.410778 -1.716511 2.892966 1.395406 -4.987927 -3.485124 -0.787699 0.613459 -2.151926 3.178364 -4.400537 -57.623861 20.981241 -42.045893 9.479556 0.000000 0.000000 0.000000 -1.909869 -2.169512 4.042071 1.760482 -2.521894 11.074131 -18.376726 -3.114194 -0.687755 17.456205 -7.246167 59.503543 1.128480 23.443711 11.549222 0.000000 0.000000 0.000000 
27.998064 34.159492 72.563263 0.000000 0.000000 0.000000 -11.752529 71.444803 14.514963 7.588679 -3.351250 -9.573442 21.090716 -0.745962 -2.411575 9.356861 -12.416835 24.122015 -47.008487 4.211576 -5.066514 0.000000 0.000000 0.000000 -12.080099 72.431486 14.392634 -33.195857 2.186337 -9.383733 7.463072 -1.200644 0.879774 33.185048 -6.779132 17.907445 1.232523 16.580498 -28.887855 0.000000 0.000000 0.000000 -17.508456 71.231763 18.799047 5.249725 -9.383825 -6.269075 -1.898187 -3.503696 3.597199 0.106011 -0.026433 -0.098101 0.000000 0.000000 0.000000 -0.515529 -0.207871 3.992748 -6.551033 5.686436 11.043214 -8.995369 -11.257792 -21.249371 0.000000 0.000000 0.000000 -3.681594 -1.886976 3.198356 1.483194 -4.591370 -3.113211 -0.908716 -0.127435 -2.337353 3.012312 -3.478341 -58.135053 21.080508 -42.540747 9.477534 0.000000 0.000000 0.000000 -2.191292 -2.413179 4.380558 2.112720 -2.910713 11.783041 -18.111596 -3.314485 -0.381046 17.447686 -7.572874 58.975733 0.946568 24.315467 11.374749 0.000000 0.000000 0.000000 
28.654501 33.829674 73.841057 0.000000 0.000000 0.000000 -13.263751 71.758910 15.589202 10.889717 -3.649558 -8.070814 21.620793 -0.510460 -2.346760 4.853794 -12.268374 22.966844 -48.626811 4.740969 -5.097698 0.000000 0.000000 0.000000 -12.134706 72.192231 14.249644 -35.197765 3.332945 -8.905841 11.519111 -2.071215 0.690219 33.300444 -7.153216 18.288895 1.337845 16.803607 -29.875005 0.000000 0.000000 0.000000 -17.311661 71.424811 18.324441 4.484826 -9.606814 -6.251391 -2.127484 -3.537304 3.718542 0.080806 0.012572 -0.123451 0.000000 0.000000 0.000000 -0.678729 -0.381875 4.255408 -5.921550 5.893673 10.387156 -8.867082 -13.230916 -20.907839 0.000000 0.000000 0.000000 -4.028376 -2.012867 3.364943 1.590598 -3.785677 -2.884636 -0.858384 -0.791156 -2.282194 3.559100 -2.662726 -59.014658 21.013973 -42.319091 9.176445 0.000000 0.000000 0.000000 -2.537154 -2.600802 4.571977 2.432583 -3.208759 11.984066 -17.807478 -3.519716 -0.114664 17.477173 -7.670355 59.297865 0.897837 24.827565 10.983538 0.000000 0.000000 0.000000 
29.289364 33.493484 75.069969 0.000000 0.000000 0.000000 -14.541597 71.102071 16.025398 13.130918 -4.573855 -6.931082 22.791346 0.496607 -2.028502 2.103930 -11.244383 22.275673 -48.205375 4.942621 -4.938969 0.000000 0.000000 0.000000 -12.192264 71.361823 13.786980 -37.438039 5.712703 -7.705223 17.266979 -2.646912 0.827717 33.671774 -6.885412 18.297261 -0.736598 17.492618 -29.342759 0.000000 0.000000 0.000000 -16.890986 71.225035 17.248091 3.751740 -9.643204 -5.824137 -2.462043 -3.516500 3.672317 0.088497 0.036670 -0.121661 0.000000 0.000000 0.000000 -1.025764 -0.482849 4.414437 -5.386332 6.061546 9.436545 -8.417716 -15.815740 -20.739618 0.000000 0.000000 0.000000 -4.421561 -2.058718 3.366434 1.716753 -2.739136 -2.789977 -0.749264 -1.144920 -2.071516 4.774081 -2.298767 -60.066466 20.579495 -41.243346 8.346210 0.000000 0.000000 0.000000 -2.883340 -2.682372 4.582207 2.747314 -3.357449 11.702614 -17.443395 -3.773664 0.041027 17.711707 -7.743990 60.477138 0.973532 24.876982 10.448802 0.000000 0.000000 0.000000 
